<?xml version="1.0" encoding="UTF-8"?>
<!DOCTYPE svg PUBLIC "-//W3C//DTD SVG 1.0//EN" "http://www.w3.org/TR/2001/REC-SVG-20010904/DTD/svg10.dtd">
<!-- Creator: CorelDRAW 2021 (64-Bit) -->
<svg xmlns="http://www.w3.org/2000/svg" xml:space="preserve" width="30.7998mm" height="7.9724mm" version="1.0" shape-rendering="geometricPrecision" text-rendering="geometricPrecision" image-rendering="optimizeQuality" fill-rule="evenodd" clip-rule="evenodd"
viewBox="0 0 495.66 128.3"
 xmlns:xlink="http://www.w3.org/1999/xlink"
 xmlns:xodm="http://www.corel.com/coreldraw/odm/2003">
 <g id="Layer_x0020_1">
  <metadata id="CorelCorpID_0Corel-Layer"/>
  <g id="_1291285161664">
   <path fill="#DA1F27" d="M42.9 102.88c-14.63,2.54 -30.14,-3.88 -38.78,-19.83 -7.52,-13.87 -4.27,-30.87 5.84,-44.38l-4.84 -4.92c-1.24,-2 -0.34,-3.02 2.41,-3.18l20.83 -2.17c2.45,-0.17 3.92,-0.04 3.83,2.71l-1.72 22.39c-0.23,2.76 -1.91,2.84 -3.26,1.39l-5.08 -4.91c-8.97,8.05 -9.92,17.53 -6.36,29 4.59,11.79 14.52,20.14 26.55,19.07 5.2,-0.45 11.24,2.97 0.58,4.82z"/>
   <path fill="#DA1F27" d="M55.24 16.45c-1.78,1.18 -3.13,0.36 -1.47,-1.55 24.07,-22.89 62.87,-19.95 80.53,12.65 10.18,18.78 5.78,41.8 -7.92,60.1l6.57 6.66c1.67,2.72 0.45,4.09 -3.27,4.3l-28.21 2.93c-3.32,0.23 -5.32,0.05 -5.2,-3.66l2.33 -30.33c0.31,-3.73 2.59,-3.83 4.42,-1.88l6.88 6.65c12.15,-10.91 14.71,-24.43 9.89,-39.97 -9.64,-24.71 -39.49,-33.52 -64.56,-15.92z"/>
   <g>
    <path fill="#044A78" fill-rule="nonzero" d="M9.68 124.4l2.7 0 0 -4.28c0.25,0.02 0.57,0.05 0.94,0.05 1.59,0 2.97,-0.41 3.89,-1.28 0.72,-0.66 1.11,-1.66 1.11,-2.85 0,-1.2 -0.52,-2.2 -1.29,-2.79 -0.8,-0.66 -2.01,-0.98 -3.68,-0.98 -1.63,0 -2.84,0.11 -3.68,0.25l0 11.87zm2.7 -6.38l0 -3.6c0.19,-0.05 0.55,-0.07 1.11,-0.07 1.37,0 2.12,0.66 2.12,1.77 0,1.22 -0.89,1.95 -2.32,1.95 -0.39,0 -0.7,-0.01 -0.91,-0.05zm7.42 6.38l2.72 0 0 -4.43c0,-0.19 0.02,-0.42 0.05,-0.6 0.18,-0.84 0.88,-1.37 1.86,-1.37 0.3,0 0.54,0.03 0.75,0.07l0 -2.55c-0.21,-0.04 -0.34,-0.04 -0.59,-0.04 -0.86,0 -1.92,0.52 -2.36,1.81l-0.07 0 -0.11 -1.61 -2.33 0c0.05,0.75 0.07,1.59 0.07,2.88l0 5.85zm6.14 -4.36c0,2.88 1.94,4.56 4.43,4.56 2.17,0 4.67,-1.31 4.67,-4.57 0,-2.81 -1.84,-4.55 -4.45,-4.55 -2.56,0 -4.64,1.62 -4.64,4.56zm2.8 0c0,-1.21 0.42,-2.63 1.76,-2.63 1.32,0 1.74,1.43 1.74,2.65 0,1.44 -0.56,2.6 -1.74,2.6 -1.19,0 -1.76,-1.22 -1.76,-2.62zm8.79 5.37l-0.53 2.06c0.79,0.43 1.98,0.66 3.14,0.66 1.28,0 2.59,-0.23 3.54,-1.08 1,-0.87 1.34,-2.24 1.34,-3.92l0 -4.84c0,-1.3 0.04,-2.04 0.07,-2.61l-2.36 0 -0.09 1.03 -0.03 0c-0.45,-0.71 -1.2,-1.23 -2.39,-1.23 -2.16,0 -3.96,1.76 -3.96,4.6 0,2.48 1.53,4.25 3.69,4.25 1,0 1.84,-0.41 2.35,-1.14l0.04 0 0 0.57c0,1.63 -0.98,2.3 -2.27,2.3 -1.04,0 -1.99,-0.34 -2.54,-0.65zm1.48 -5.39c0,-1.59 0.79,-2.48 1.77,-2.48 0.75,0 1.27,0.47 1.46,1.19 0.04,0.14 0.05,0.32 0.05,0.51l0 1.27c0,0.23 -0.04,0.52 -0.07,0.73 -0.19,0.63 -0.75,1.09 -1.45,1.09 -1.14,0 -1.77,-1.02 -1.77,-2.31zm8.16 4.39l2.72 0 0 -4.43c0,-0.19 0.02,-0.42 0.05,-0.6 0.18,-0.84 0.88,-1.37 1.86,-1.37 0.3,0 0.54,0.03 0.75,0.07l0 -2.55c-0.21,-0.04 -0.34,-0.04 -0.59,-0.04 -0.86,0 -1.91,0.52 -2.36,1.81l-0.07 0 -0.11 -1.61 -2.33 0c0.06,0.75 0.07,1.59 0.07,2.88l0 5.85zm6.03 -2.47c0,1.41 1.05,2.67 2.82,2.67 1.04,0 1.92,-0.37 2.49,-1.05l0.05 0 0.16 0.85 2.45 0c-0.09,-0.51 -0.14,-1.29 -0.14,-2.13l0 -3.04c0,-2.05 -0.91,-3.75 -3.81,-3.75 -1.59,0 -2.78,0.43 -3.39,0.79l0.5 1.73c0.59,-0.34 1.5,-0.66 2.39,-0.66 1.35,0 1.6,0.66 1.6,1.12l0 0.12c-3.08,0 -5.11,1.07 -5.11,3.35zm2.67 -0.27c0,-1.05 1.08,-1.39 2.53,-1.41l0 0.99c0,0.14 0,0.32 -0.05,0.45 -0.18,0.56 -0.73,1.01 -1.39,1.01 -0.62,0 -1.08,-0.34 -1.08,-1.04zm7.3 2.74l2.64 0 0 -5.08c0,-0.21 0.02,-0.46 0.11,-0.68 0.14,-0.43 0.57,-0.96 1.27,-0.96 0.86,0 1.25,0.75 1.25,1.83l0 4.89 2.65 0 0 -5.1c0,-0.21 0.01,-0.48 0.09,-0.7 0.19,-0.52 0.64,-0.92 1.27,-0.92 0.89,0 1.3,0.73 1.3,2l0 4.73 2.64 0 0 -5.14c0,-2.61 -1.28,-3.79 -2.95,-3.79 -0.65,0 -1.19,0.14 -1.67,0.43 -0.42,0.25 -0.81,0.61 -1.13,1.05l-0.04 0c-0.37,-0.91 -1.24,-1.48 -2.38,-1.48 -1.5,0 -2.29,0.82 -2.64,1.38l-0.05 0 -0.11 -1.18 -2.31 0c0.04,0.79 0.07,1.7 0.07,2.78l0 5.94zm14.8 -2.47c0,1.41 1.05,2.67 2.81,2.67 1.04,0 1.92,-0.37 2.5,-1.05l0.05 0 0.15 0.85 2.45 0c-0.09,-0.51 -0.14,-1.29 -0.14,-2.13l0 -3.04c0,-2.05 -0.91,-3.75 -3.81,-3.75 -1.59,0 -2.78,0.43 -3.39,0.79l0.5 1.73c0.59,-0.34 1.5,-0.66 2.38,-0.66 1.35,0 1.6,0.66 1.6,1.12l0 0.12c-3.08,0 -5.11,1.07 -5.11,3.35zm2.67 -0.27c0,-1.05 1.09,-1.39 2.52,-1.41l0 0.99c0,0.14 0,0.32 -0.05,0.45 -0.18,0.56 -0.73,1.01 -1.39,1.01 -0.62,0 -1.09,-0.34 -1.09,-1.04zm11.13 -1.53c0,2.72 1.66,4.48 3.73,4.48 1.1,0 2.18,-0.48 2.72,-1.46l0.04 0 0.11 1.26 2.43 0c-0.04,-0.57 -0.07,-1.6 -0.07,-2.61l0 -10.06 -2.72 0 0 4.73 -0.04 0c-0.39,-0.6 -1.22,-0.98 -2.31,-0.98 -2.07,0 -3.91,1.72 -3.89,4.64zm2.76 -0.09c0,-1.36 0.63,-2.47 1.86,-2.47 0.84,0 1.43,0.59 1.57,1.3 0.04,0.18 0.05,0.36 0.05,0.52l0 1.12c0,0.23 -0.02,0.43 -0.07,0.62 -0.16,0.77 -0.79,1.3 -1.57,1.3 -1.13,0 -1.84,-0.93 -1.84,-2.41zm7.87 0.1c0,2.74 1.7,4.47 4.67,4.47 1.16,0 2.26,-0.2 3.15,-0.55l-0.36 -1.85c-0.74,0.25 -1.47,0.38 -2.4,0.38 -1.27,0 -2.38,-0.54 -2.48,-1.68l5.62 0c0.04,-0.19 0.11,-0.59 0.11,-1.06 0,-2.17 -1.08,-4.36 -3.91,-4.36 -3.04,0 -4.41,2.44 -4.41,4.66zm2.57 -1.08c0.07,-0.72 0.54,-1.77 1.69,-1.77 1.23,0 1.54,1.13 1.54,1.77l-3.22 0zm10.89 5.35l2.82 0 0.86 -3.08 3.44 0 0.93 3.08 2.94 0 -3.75 -12.03 -3.57 0 -3.68 12.03zm4.07 -5.1l0.71 -2.57c0.18,-0.68 0.38,-1.61 0.54,-2.3l0.05 0c0.18,0.7 0.39,1.59 0.61,2.3l0.73 2.57 -2.64 0zm10.1 5.1l2.71 0 3.25 -8.73 -2.86 0 -1.13 4.05c-0.19,0.75 -0.34,1.41 -0.48,2.13l-0.05 0c-0.14,-0.7 -0.29,-1.37 -0.5,-2.12l-1.18 -4.06 -2.94 0 3.18 8.73zm6.51 -2.47c0,1.41 1.06,2.67 2.81,2.67 1.03,0 1.92,-0.37 2.5,-1.05l0.05 0 0.16 0.85 2.44 0c-0.09,-0.51 -0.14,-1.29 -0.14,-2.13l0 -3.04c0,-2.05 -0.91,-3.75 -3.82,-3.75 -1.58,0 -2.78,0.43 -3.38,0.79l0.5 1.73c0.59,-0.34 1.49,-0.66 2.38,-0.66 1.36,0 1.61,0.66 1.61,1.12l0 0.12c-3.08,0 -5.11,1.07 -5.11,3.35zm2.68 -0.27c0,-1.05 1.08,-1.39 2.52,-1.41l0 0.99c0,0.14 0,0.32 -0.05,0.45 -0.18,0.56 -0.74,1.01 -1.4,1.01 -0.62,0 -1.08,-0.34 -1.08,-1.04zm7.3 2.74l2.73 0 0 -12.67 -2.73 0 0 12.67zm4.9 0l2.72 0 0 -8.73 -2.72 0 0 8.73zm1.34 -9.8c0.91,0 1.47,-0.61 1.46,-1.35 0,-0.79 -0.55,-1.37 -1.42,-1.37 -0.86,0 -1.43,0.59 -1.43,1.37 0,0.75 0.53,1.35 1.39,1.35zm3 7.33c0,1.41 1.05,2.67 2.81,2.67 1.03,0 1.92,-0.37 2.49,-1.05l0.05 0 0.16 0.85 2.44 0c-0.09,-0.51 -0.14,-1.29 -0.14,-2.13l0 -3.04c0,-2.05 -0.91,-3.75 -3.82,-3.75 -1.58,0 -2.77,0.43 -3.38,0.79l0.5 1.73c0.59,-0.34 1.49,-0.66 2.38,-0.66 1.36,0 1.61,0.66 1.61,1.12l0 0.12c-3.08,0 -5.11,1.07 -5.11,3.35zm2.68 -0.27c0,-1.05 1.08,-1.39 2.52,-1.41l0 0.99c0,0.14 0,0.32 -0.05,0.45 -0.18,0.56 -0.73,1.01 -1.39,1.01 -0.62,0 -1.08,-0.34 -1.08,-1.04zm13.53 0.54c-0.43,0.16 -0.91,0.28 -1.56,0.28 -1.3,0 -2.36,-0.85 -2.36,-2.45 -0.02,-1.43 0.91,-2.45 2.33,-2.45 0.71,0 1.19,0.13 1.52,0.28l0.43 -2.03c-0.57,-0.22 -1.36,-0.34 -2.08,-0.34 -3.22,0 -4.96,2.09 -4.96,4.64 0,2.38 1.37,4 3.57,4.38l-0.64 1.48c0.98,0.09 1.39,0.31 1.39,0.66 0,0.33 -0.28,0.46 -0.64,0.46 -0.31,0 -0.74,-0.1 -1,-0.24l-0.34 1.09c0.41,0.23 0.98,0.35 1.5,0.35 1.03,0 2.13,-0.42 2.13,-1.68 0,-0.84 -0.62,-1.28 -1.27,-1.42l0.28 -0.6c0.86,-0.06 1.59,-0.22 2.04,-0.42l-0.32 -1.99zm1.34 -0.27c0,1.41 1.05,2.67 2.82,2.67 1.03,0 1.92,-0.37 2.49,-1.05l0.05 0 0.16 0.85 2.45 0c-0.09,-0.51 -0.14,-1.29 -0.14,-2.13l0 -3.04c0,-2.05 -0.91,-3.75 -3.82,-3.75 -1.58,0 -2.78,0.43 -3.38,0.79l0.5 1.73c0.59,-0.34 1.5,-0.66 2.39,-0.66 1.35,0 1.6,0.66 1.6,1.12l0 0.12c-3.07,0 -5.11,1.07 -5.11,3.35zm2.68 -0.27c0,-1.05 1.08,-1.39 2.52,-1.41l0 0.99c0,0.14 0,0.32 -0.05,0.45 -0.18,0.56 -0.74,1.01 -1.39,1.01 -0.62,0 -1.08,-0.34 -1.08,-1.04zm-1.45 -7.35l1.37 0c0.03,-0.62 0.21,-0.74 0.47,-0.74 0.25,0 0.49,0.14 0.85,0.34 0.46,0.23 0.78,0.43 1.34,0.43 0.93,0 1.58,-0.57 1.58,-2.43l-1.39 0c-0.05,0.7 -0.25,0.78 -0.52,0.78 -0.22,0 -0.52,-0.19 -0.84,-0.37 -0.42,-0.23 -0.79,-0.41 -1.28,-0.41 -0.96,0 -1.66,0.7 -1.59,2.4zm8.28 5.74c0,2.88 1.94,4.56 4.43,4.56 2.17,0 4.67,-1.31 4.67,-4.57 0,-2.81 -1.84,-4.55 -4.45,-4.55 -2.56,0 -4.64,1.62 -4.64,4.56zm2.8 0c0,-1.21 0.42,-2.63 1.76,-2.63 1.32,0 1.75,1.43 1.75,2.65 0,1.44 -0.57,2.6 -1.75,2.6 -1.19,0 -1.76,-1.22 -1.76,-2.62zm11.78 0.09c0,2.74 1.7,4.47 4.67,4.47 1.16,0 2.26,-0.2 3.15,-0.55l-0.36 -1.85c-0.75,0.25 -1.48,0.38 -2.4,0.38 -1.27,0 -2.38,-0.54 -2.47,-1.68l5.62 0c0.04,-0.19 0.11,-0.59 0.11,-1.06 0,-2.17 -1.08,-4.36 -3.9,-4.36 -3.04,0 -4.42,2.44 -4.42,4.66zm2.58 -1.08c0.07,-0.72 0.53,-1.77 1.68,-1.77 1.24,0 1.54,1.13 1.54,1.77l-3.22 0zm11.77 5.29c0.68,0.09 1.68,0.18 3.11,0.18 2.32,0 4.27,-0.5 5.53,-1.55 1.16,-0.98 2,-2.57 2,-4.87 0,-2.12 -0.78,-3.6 -2.03,-4.53 -1.16,-0.86 -2.64,-1.29 -4.95,-1.29 -1.34,0 -2.67,0.09 -3.66,0.25l0 11.81zm2.72 -1.99l0 -7.87c0.25,-0.06 0.64,-0.11 1.23,-0.11 2.36,0 3.8,1.32 3.8,3.82 0,2.87 -1.61,4.23 -4.07,4.21 -0.34,0 -0.71,-0.02 -0.96,-0.05zm9.12 -2.22c0,2.74 1.7,4.47 4.67,4.47 1.16,0 2.26,-0.2 3.15,-0.55l-0.36 -1.85c-0.75,0.25 -1.47,0.38 -2.4,0.38 -1.27,0 -2.38,-0.54 -2.47,-1.68l5.62 0c0.04,-0.19 0.11,-0.59 0.11,-1.06 0,-2.17 -1.09,-4.36 -3.91,-4.36 -3.04,0 -4.41,2.44 -4.41,4.66zm2.57 -1.08c0.07,-0.72 0.54,-1.77 1.68,-1.77 1.23,0 1.54,1.13 1.54,1.77l-3.22 0zm6.86 4.93c0.64,0.36 1.67,0.62 2.81,0.62 2.51,0 3.8,-1.21 3.8,-2.83 -0.02,-1.29 -0.71,-2.13 -2.37,-2.7 -1.08,-0.37 -1.42,-0.59 -1.42,-1 0,-0.43 0.38,-0.72 1.05,-0.72 0.75,0 1.5,0.31 1.89,0.51l0.48 -1.88c-0.54,-0.27 -1.44,-0.5 -2.47,-0.5 -2.18,0 -3.55,1.22 -3.55,2.86 0,1.04 0.68,2.02 2.49,2.63 0.99,0.34 1.28,0.55 1.28,1 0,0.47 -0.36,0.74 -1.2,0.74 -0.77,0 -1.81,-0.36 -2.31,-0.67l-0.48 1.95zm7.75 -3.84c0,2.74 1.7,4.47 4.67,4.47 1.16,0 2.26,-0.2 3.15,-0.55l-0.35 -1.85c-0.75,0.25 -1.48,0.38 -2.4,0.38 -1.27,0 -2.38,-0.54 -2.47,-1.68l5.62 0c0.04,-0.19 0.11,-0.59 0.11,-1.06 0,-2.17 -1.09,-4.36 -3.9,-4.36 -3.04,0 -4.42,2.44 -4.42,4.66zm2.57 -1.08c0.07,-0.72 0.54,-1.77 1.69,-1.77 1.23,0 1.54,1.13 1.54,1.77l-3.22 0zm7.35 5.35l2.72 0 0 -5.03c0,-0.25 0.03,-0.51 0.11,-0.67 0.18,-0.5 0.62,-1.02 1.37,-1.02 0.96,0 1.37,0.76 1.37,1.89l0 4.83 2.72 0 0 -5.17c0,-2.58 -1.34,-3.75 -3.13,-3.75 -1.46,0 -2.34,0.84 -2.69,1.41l-0.05 0 -0.12 -1.21 -2.37 0c0.04,0.79 0.07,1.7 0.07,2.78l0 5.94zm12.38 0l2.71 0 3.25 -8.73 -2.85 0 -1.13 4.05c-0.19,0.75 -0.33,1.41 -0.48,2.13l-0.05 0c-0.14,-0.7 -0.29,-1.37 -0.5,-2.12l-1.18 -4.06 -2.94 0 3.18 8.73zm6.46 -4.36c0,2.88 1.94,4.56 4.43,4.56 2.17,0 4.67,-1.31 4.67,-4.57 0,-2.81 -1.84,-4.55 -4.45,-4.55 -2.56,0 -4.65,1.62 -4.65,4.56zm2.8 0c0,-1.21 0.42,-2.63 1.75,-2.63 1.32,0 1.75,1.43 1.75,2.65 0,1.44 -0.57,2.6 -1.75,2.6 -1.18,0 -1.75,-1.22 -1.75,-2.62zm7.96 4.36l2.73 0 0 -12.67 -2.73 0 0 12.67zm7.15 0l2.71 0 3.25 -8.73 -2.86 0 -1.12 4.05c-0.2,0.75 -0.33,1.41 -0.48,2.13l-0.05 0c-0.14,-0.7 -0.29,-1.37 -0.5,-2.12l-1.18 -4.06 -2.95 0 3.18 8.73zm7.2 0l2.72 0 0 -8.73 -2.72 0 0 8.73zm1.33 -9.8c0.91,0 1.48,-0.61 1.47,-1.35 0,-0.79 -0.56,-1.37 -1.42,-1.37 -0.85,0 -1.43,0.59 -1.43,1.37 0,0.75 0.54,1.35 1.38,1.35zm3.56 9.8l2.65 0 0 -5.08c0,-0.21 0.02,-0.46 0.1,-0.68 0.15,-0.43 0.58,-0.96 1.27,-0.96 0.86,0 1.25,0.75 1.25,1.83l0 4.89 2.65 0 0 -5.1c0,-0.21 0.02,-0.48 0.09,-0.7 0.18,-0.52 0.63,-0.92 1.27,-0.92 0.88,0 1.3,0.73 1.3,2l0 4.73 2.64 0 0 -5.14c0,-2.61 -1.28,-3.79 -2.95,-3.79 -0.65,0 -1.19,0.14 -1.68,0.43 -0.41,0.25 -0.8,0.61 -1.12,1.05l-0.04 0c-0.37,-0.91 -1.25,-1.48 -2.38,-1.48 -1.5,0 -2.29,0.82 -2.65,1.38l-0.05 0 -0.1 -1.18 -2.32 0c0.04,0.79 0.08,1.7 0.08,2.78l0 5.94zm14.85 -4.26c0,2.74 1.7,4.47 4.67,4.47 1.16,0 2.26,-0.2 3.15,-0.55l-0.35 -1.85c-0.75,0.25 -1.48,0.38 -2.41,0.38 -1.27,0 -2.38,-0.54 -2.47,-1.68l5.62 0c0.04,-0.19 0.11,-0.59 0.11,-1.06 0,-2.17 -1.08,-4.36 -3.9,-4.36 -3.04,0 -4.42,2.44 -4.42,4.66zm2.57 -1.08c0.07,-0.72 0.54,-1.77 1.68,-1.77 1.23,0 1.54,1.13 1.54,1.77l-3.22 0zm7.35 5.35l2.73 0 0 -5.03c0,-0.25 0.04,-0.51 0.11,-0.67 0.18,-0.5 0.63,-1.02 1.37,-1.02 0.96,0 1.38,0.76 1.38,1.89l0 4.83 2.71 0 0 -5.17c0,-2.58 -1.34,-3.75 -3.13,-3.75 -1.46,0 -2.34,0.84 -2.69,1.41l-0.05 0 -0.13 -1.21 -2.36 0c0.04,0.79 0.07,1.7 0.07,2.78l0 5.94zm11.49 -0.57c0.45,0.46 1.17,0.77 2.06,0.77 0.75,0 1.4,-0.12 1.75,-0.25l-0.02 -2.06c-0.2,0.06 -0.47,0.09 -0.83,0.09 -0.79,0 -1.05,-0.48 -1.05,-1.54l0 -3.16 1.95 0 0 -2 -1.95 0 0 -2.5 -2.65 0.63 0 1.87 -1.17 0 0 2 1.17 0 0 3.57c0,1.24 0.23,2.06 0.73,2.58zm4.86 -3.79c0,2.88 1.94,4.56 4.43,4.56 2.17,0 4.67,-1.31 4.67,-4.57 0,-2.81 -1.83,-4.55 -4.46,-4.55 -2.55,0 -4.64,1.62 -4.64,4.56zm2.8 0c0,-1.21 0.43,-2.63 1.76,-2.63 1.32,0 1.74,1.43 1.74,2.65 0,1.44 -0.57,2.6 -1.74,2.6 -1.19,0 -1.76,-1.22 -1.76,-2.62zm11.78 0.08c0,2.72 1.66,4.48 3.73,4.48 1.11,0 2.18,-0.48 2.73,-1.46l0.04 0 0.11 1.26 2.43 0c-0.03,-0.57 -0.07,-1.6 -0.07,-2.61l0 -10.06 -2.72 0 0 4.73 -0.04 0c-0.39,-0.6 -1.23,-0.98 -2.32,-0.98 -2.07,0 -3.91,1.72 -3.89,4.64zm2.77 -0.09c0,-1.36 0.62,-2.47 1.86,-2.47 0.84,0 1.43,0.59 1.57,1.3 0.04,0.18 0.05,0.36 0.05,0.52l0 1.12c0,0.23 -0.01,0.43 -0.07,0.62 -0.16,0.77 -0.79,1.3 -1.57,1.3 -1.12,0 -1.84,-0.93 -1.84,-2.41zm7.87 0.1c0,2.74 1.7,4.47 4.67,4.47 1.16,0 2.26,-0.2 3.15,-0.55l-0.35 -1.85c-0.75,0.25 -1.47,0.38 -2.41,0.38 -1.27,0 -2.38,-0.54 -2.47,-1.68l5.61 0c0.04,-0.19 0.11,-0.59 0.11,-1.06 0,-2.17 -1.08,-4.36 -3.91,-4.36 -3.04,0 -4.41,2.44 -4.41,4.66zm2.57 -1.08c0.07,-0.72 0.54,-1.77 1.68,-1.77 1.23,0 1.54,1.13 1.54,1.77l-3.22 0zm11.22 -0.48c0,3.42 2.14,6.03 6.29,6.03 1.46,0 2.59,-0.28 3.09,-0.52l-0.41 -2.14c-0.54,0.21 -1.45,0.39 -2.27,0.39 -2.43,0 -3.86,-1.52 -3.86,-3.93 0,-2.68 1.7,-3.98 3.84,-3.98 0.96,0 1.73,0.22 2.27,0.45l0.57 -2.14c-0.46,-0.26 -1.55,-0.53 -2.96,-0.53 -3.64,0 -6.56,2.26 -6.56,6.36zm10.24 1.47c0,2.88 1.94,4.56 4.43,4.56 2.17,0 4.66,-1.31 4.66,-4.57 0,-2.81 -1.84,-4.55 -4.45,-4.55 -2.56,0 -4.64,1.62 -4.64,4.56zm2.8 0c0,-1.21 0.42,-2.63 1.76,-2.63 1.32,0 1.74,1.43 1.74,2.65 0,1.44 -0.57,2.6 -1.74,2.6 -1.19,0 -1.76,-1.22 -1.76,-2.62zm7.96 4.36l2.65 0 0 -5.08c0,-0.21 0.02,-0.46 0.1,-0.68 0.15,-0.43 0.57,-0.96 1.27,-0.96 0.86,0 1.25,0.75 1.25,1.83l0 4.89 2.65 0 0 -5.1c0,-0.21 0.02,-0.48 0.09,-0.7 0.18,-0.52 0.63,-0.92 1.26,-0.92 0.89,0 1.3,0.73 1.3,2l0 4.73 2.64 0 0 -5.14c0,-2.61 -1.29,-3.79 -2.95,-3.79 -0.65,0 -1.2,0.14 -1.68,0.43 -0.42,0.25 -0.81,0.61 -1.13,1.05l-0.04 0c-0.37,-0.91 -1.24,-1.48 -2.38,-1.48 -1.51,0 -2.29,0.82 -2.65,1.38l-0.05 0 -0.1 -1.18 -2.32 0c0.04,0.79 0.07,1.7 0.07,2.78l0 5.94zm18.08 -0.8l0.04 0c0.37,0.59 1.22,1.01 2.27,1.01 1.96,0 3.99,-1.5 3.99,-4.68 0,-2.79 -1.73,-4.45 -3.65,-4.45 -1.27,0 -2.25,0.48 -2.92,1.41l-0.04 0 -0.12 -1.21 -2.36 0c0.04,0.82 0.07,1.79 0.07,2.93l0 9.32 2.72 0 0 -4.33zm0.05 -2.37c-0.04,-0.16 -0.05,-0.36 -0.05,-0.57l0 -1.19c0,-0.16 0.02,-0.34 0.05,-0.48 0.18,-0.79 0.86,-1.38 1.63,-1.38 1.22,0 1.85,1.05 1.85,2.44 0,1.48 -0.7,2.48 -1.88,2.48 -0.79,0 -1.41,-0.57 -1.59,-1.3zm7.45 -1.09c0,2.74 1.71,4.47 4.67,4.47 1.16,0 2.26,-0.2 3.15,-0.55l-0.36 -1.85c-0.75,0.25 -1.47,0.38 -2.4,0.38 -1.27,0 -2.38,-0.54 -2.47,-1.68l5.62 0c0.04,-0.19 0.11,-0.59 0.11,-1.06 0,-2.17 -1.08,-4.36 -3.9,-4.36 -3.05,0 -4.42,2.44 -4.42,4.66zm2.57 -1.08c0.08,-0.72 0.54,-1.77 1.69,-1.77 1.23,0 1.54,1.13 1.54,1.77l-3.22 0zm8.48 4.78c0.45,0.46 1.17,0.77 2.06,0.77 0.75,0 1.4,-0.12 1.75,-0.25l-0.02 -2.06c-0.2,0.06 -0.47,0.09 -0.82,0.09 -0.79,0 -1.05,-0.48 -1.05,-1.54l0 -3.16 1.95 0 0 -2 -1.95 0 0 -2.5 -2.65 0.63 0 1.87 -1.17 0 0 2 1.17 0 0 3.57c0,1.24 0.23,2.06 0.73,2.58zm4.84 -3.69c0,2.74 1.7,4.47 4.67,4.47 1.16,0 2.26,-0.2 3.15,-0.55l-0.36 -1.85c-0.74,0.25 -1.47,0.38 -2.4,0.38 -1.27,0 -2.38,-0.54 -2.47,-1.68l5.61 0c0.04,-0.19 0.11,-0.59 0.11,-1.06 0,-2.17 -1.08,-4.36 -3.9,-4.36 -3.04,0 -4.41,2.44 -4.41,4.66zm2.57 -1.08c0.07,-0.72 0.54,-1.77 1.68,-1.77 1.23,0 1.54,1.13 1.54,1.77l-3.22 0zm-1.15 -4.53l1.92 0 0.94 -1.43 0.04 0 0.97 1.43 1.89 0 -1.82 -2.59 -2.1 0 -1.84 2.59zm8.49 9.88l2.73 0 0 -5.03c0,-0.25 0.03,-0.51 0.1,-0.67 0.18,-0.5 0.62,-1.02 1.38,-1.02 0.96,0 1.37,0.76 1.37,1.89l0 4.83 2.71 0 0 -5.17c0,-2.58 -1.34,-3.75 -3.13,-3.75 -1.46,0 -2.34,0.84 -2.69,1.41l-0.05 0 -0.12 -1.21 -2.37 0c0.04,0.79 0.07,1.7 0.07,2.78l0 5.94zm9.99 -4.28c0,2.75 1.79,4.48 4.61,4.48 1.04,0 1.93,-0.2 2.43,-0.42l-0.32 -1.99c-0.43,0.16 -0.91,0.28 -1.57,0.28 -1.3,0 -2.37,-0.85 -2.37,-2.45 -0.02,-1.43 0.91,-2.45 2.34,-2.45 0.71,0 1.2,0.13 1.52,0.28l0.43 -2.03c-0.57,-0.22 -1.36,-0.34 -2.09,-0.34 -3.23,0 -4.97,2.09 -4.97,4.64zm8.52 4.28l2.73 0 0 -8.73 -2.73 0 0 8.73zm1.34 -9.8c0.91,0 1.48,-0.61 1.47,-1.35 0,-0.79 -0.56,-1.37 -1.43,-1.37 -0.85,0 -1.42,0.59 -1.42,1.37 0,0.75 0.53,1.35 1.39,1.35zm3 7.33c0,1.41 1.05,2.67 2.82,2.67 1.03,0 1.92,-0.37 2.49,-1.05l0.05 0 0.16 0.85 2.45 0c-0.09,-0.51 -0.14,-1.29 -0.14,-2.13l0 -3.04c0,-2.05 -0.91,-3.75 -3.81,-3.75 -1.58,0 -2.78,0.43 -3.39,0.79l0.5 1.73c0.59,-0.34 1.5,-0.66 2.38,-0.66 1.35,0 1.6,0.66 1.6,1.12l0 0.12c-3.08,0 -5.11,1.07 -5.11,3.35zm2.68 -0.27c0,-1.05 1.08,-1.39 2.52,-1.41l0 0.99c0,0.14 0,0.32 -0.05,0.45 -0.18,0.56 -0.74,1.01 -1.39,1.01 -0.62,0 -1.08,-0.34 -1.08,-1.04zm6.81 2.32c0.64,0.36 1.68,0.62 2.81,0.62 2.51,0 3.79,-1.21 3.79,-2.83 -0.02,-1.29 -0.72,-2.13 -2.37,-2.7 -1.08,-0.37 -1.42,-0.59 -1.42,-1 0,-0.43 0.38,-0.72 1.05,-0.72 0.75,0 1.5,0.31 1.89,0.51l0.48 -1.88c-0.54,-0.27 -1.45,-0.5 -2.47,-0.5 -2.18,0 -3.56,1.22 -3.56,2.86 0,1.04 0.68,2.02 2.49,2.63 0.99,0.34 1.28,0.55 1.28,1 0,0.47 -0.36,0.74 -1.2,0.74 -0.77,0 -1.81,-0.36 -2.31,-0.67l-0.48 1.95z"/>
    <path fill="#044A78" fill-rule="nonzero" d="M210.86 101.25l-13.9 0 18.41 -68.83 13.9 0 -18.41 68.83zm52.43 -6.04c-1.59,1.22 -3.23,2.27 -4.89,3.16 -1.66,0.9 -3.45,1.63 -5.36,2.2 -1.22,0.38 -2.43,0.69 -3.65,0.91 -1.22,0.22 -2.43,0.4 -3.64,0.53 -0.63,0.06 -1.25,0.11 -1.82,0.14 -0.58,0.03 -1.18,0.05 -1.82,0.05 -1.79,0 -3.54,-0.14 -5.27,-0.43 -1.72,-0.28 -3.36,-0.68 -4.89,-1.19 -1.53,-0.58 -2.91,-1.29 -4.12,-2.15 -1.21,-0.87 -2.27,-1.91 -3.16,-3.12 -0.89,-1.21 -1.63,-2.54 -2.21,-3.98 -0.58,-1.44 -0.96,-3.02 -1.15,-4.74 -0.13,-1.66 -0.1,-3.37 0.09,-5.13 0.19,-1.76 0.51,-3.53 0.96,-5.32 0.51,-1.79 1.13,-3.55 1.87,-5.27 0.74,-1.73 1.65,-3.45 2.73,-5.18 1.09,-1.66 2.29,-3.23 3.6,-4.69 1.31,-1.47 2.76,-2.82 4.36,-4.03 1.54,-1.15 3.14,-2.18 4.84,-3.07 1.69,-0.9 3.47,-1.63 5.32,-2.2 1.85,-0.58 3.72,-1.03 5.61,-1.34 1.88,-0.32 3.72,-0.48 5.51,-0.48 1.79,0 3.5,0.16 5.13,0.48 1.63,0.31 3.25,0.76 4.84,1.34 1.6,0.58 3,1.31 4.22,2.2 1.21,0.89 2.27,1.92 3.16,3.07 0.9,1.21 1.62,2.56 2.16,4.03 0.55,1.47 0.91,3.03 1.1,4.69 0.13,1.73 0.14,3.45 0.05,5.18 -0.1,1.73 -0.4,3.49 -0.91,5.27 -0.45,1.79 -1.09,3.56 -1.92,5.32 -0.83,1.76 -1.79,3.47 -2.87,5.13 -1.02,1.72 -2.19,3.31 -3.5,4.74 -1.31,1.44 -2.76,2.76 -4.36,3.98l0 -0.09zm-22.53 -4.7c0.13,0.06 0.28,0.14 0.48,0.23 0.19,0.1 0.39,0.18 0.58,0.25 0.19,0.06 0.38,0.13 0.57,0.19 0.19,0.07 0.39,0.1 0.58,0.1 1.47,0.25 2.97,0.23 4.5,-0.05 1.54,-0.28 3.06,-0.84 4.6,-1.67 1.53,-0.77 2.91,-1.74 4.12,-2.93 1.21,-1.18 2.27,-2.54 3.16,-4.07 0.32,-0.51 0.59,-1.05 0.82,-1.63 0.22,-0.57 0.47,-1.18 0.72,-1.82 0.32,-0.63 0.58,-1.28 0.77,-1.91 0.19,-0.64 0.39,-1.28 0.58,-1.92 0.32,-1.41 0.48,-2.78 0.48,-4.12 0,-1.34 -0.12,-2.63 -0.38,-3.84 -0.26,-1.27 -0.73,-2.38 -1.44,-3.31 -0.7,-0.93 -1.66,-1.68 -2.88,-2.25 -0.25,-0.13 -0.52,-0.24 -0.81,-0.34 -0.29,-0.09 -0.56,-0.17 -0.82,-0.23 -0.32,-0.06 -0.62,-0.11 -0.91,-0.14 -0.29,-0.03 -0.59,-0.08 -0.91,-0.14 -0.7,-0.07 -1.42,-0.07 -2.16,0 -0.73,0.06 -1.45,0.19 -2.16,0.38 -0.77,0.13 -1.52,0.34 -2.25,0.63 -0.73,0.29 -1.45,0.63 -2.15,1.01 -1.54,0.83 -2.88,1.79 -4.03,2.87 -1.15,1.08 -2.15,2.37 -2.97,3.84 -0.32,0.58 -0.62,1.15 -0.91,1.73 -0.29,0.58 -0.56,1.15 -0.82,1.73 -0.25,0.57 -0.45,1.15 -0.57,1.73 -0.13,0.57 -0.25,1.15 -0.38,1.72 -0.45,1.54 -0.69,3.01 -0.72,4.41 -0.03,1.41 0.11,2.78 0.43,4.12 0.32,1.34 0.88,2.48 1.68,3.4 0.8,0.93 1.84,1.65 3.12,2.16l0.09 -0.1zm46.87 -39.79l22.43 0c3.58,0.06 6.31,0.49 8.2,1.29 1.89,0.8 2.9,2.03 3.02,3.69 0.13,1.6 0.02,3.5 -0.33,5.7 -0.35,2.21 -0.88,4.69 -1.58,7.43 -0.07,0.25 -0.13,0.51 -0.19,0.77 -0.07,0.26 -0.13,0.51 -0.19,0.77 -0.06,0.12 -0.11,0.25 -0.14,0.38 -0.04,0.12 -0.05,0.26 -0.05,0.39 -0.06,0.19 -0.11,0.35 -0.14,0.48 -0.03,0.13 -0.08,0.26 -0.14,0.38l-12.75 -0.09c0.06,-0.13 0.11,-0.29 0.14,-0.48 0.03,-0.19 0.08,-0.38 0.14,-0.58 0.06,-0.12 0.11,-0.23 0.14,-0.29 0.03,-0.06 0.05,-0.16 0.05,-0.28 0,0 0,-0.02 0,-0.05 0,-0.03 0,-0.05 0,-0.05 0,-0.06 0.01,-0.13 0.05,-0.19 0.03,-0.06 0.05,-0.12 0.05,-0.19 0.64,-2.3 1.05,-4.14 1.25,-5.52 0.19,-1.37 0.13,-2.25 -0.19,-2.64 -0.25,-0.39 -1.02,-0.67 -2.3,-0.87 -1.28,-0.19 -3.07,-0.28 -5.37,-0.28 -0.13,0 -0.26,0 -0.39,0 -0.13,0 -0.25,0 -0.38,0 -0.07,0 -0.13,0 -0.19,0 -0.06,0 -0.09,0 -0.09,0 -0.06,0 -0.13,0 -0.19,0 -0.07,0 -0.13,0 -0.19,0l-10.83 40.74 -13.33 0 13.52 -50.52zm43.32 -5.75l3.36 -12.56 11.9 0c-4.49,5.65 -7.88,10.18 -15.26,12.56zm8.61 45.44l37.58 -28.76 -29.91 0 2.97 -10.93 47.36 0 -2.97 10.93 -37.59 28.76 29.91 0 -2.88 10.83 -47.36 0 2.87 -10.83zm122.4 -39.69l22.43 0c3.58,0.06 6.31,0.49 8.2,1.29 1.89,0.8 2.89,2.03 3.02,3.69 0.13,1.6 0.02,3.5 -0.34,5.7 -0.35,2.21 -0.88,4.69 -1.58,7.43 -0.07,0.25 -0.13,0.51 -0.19,0.77 -0.07,0.26 -0.13,0.51 -0.19,0.77 -0.06,0.12 -0.11,0.25 -0.14,0.38 -0.03,0.12 -0.04,0.26 -0.04,0.39 -0.07,0.19 -0.12,0.35 -0.14,0.48 -0.04,0.13 -0.08,0.26 -0.15,0.38l-12.74 -0.09c0.06,-0.13 0.11,-0.29 0.14,-0.48 0.03,-0.19 0.08,-0.38 0.14,-0.58 0.06,-0.12 0.11,-0.23 0.14,-0.29 0.03,-0.06 0.05,-0.16 0.05,-0.28 0,0 0,-0.02 0,-0.05 0,-0.03 0,-0.05 0,-0.05 0,-0.06 0.01,-0.13 0.05,-0.19 0.03,-0.06 0.05,-0.12 0.05,-0.19 0.64,-2.3 1.05,-4.14 1.25,-5.52 0.19,-1.37 0.13,-2.25 -0.19,-2.64 -0.25,-0.39 -1.02,-0.67 -2.3,-0.87 -1.28,-0.19 -3.06,-0.28 -5.37,-0.28 -0.13,0 -0.26,0 -0.39,0 -0.13,0 -0.25,0 -0.38,0 -0.07,0 -0.13,0 -0.19,0 -0.06,0 -0.09,0 -0.09,0 -0.07,0 -0.13,0 -0.19,0 -0.07,0 -0.13,0 -0.19,0l-10.83 40.74 -13.33 0 13.52 -50.52z"/>
    <polygon fill="#044A78" fill-rule="nonzero" points="52.88,103.57 43.37,46.75 59.32,46.81 64.67,86.03 99.56,34.73 115,34.73 67.83,103.57 "/>
    <path fill="#044A78" fill-rule="nonzero" d="M153.83 50.87l27.24 0c6.88,0 11.63,1.58 14.27,4.73 1.15,1.38 1.88,3.05 2.22,5 -1.71,12.43 -9.72,28.95 -28.93,40.59l-16.02 0c-5,0 -8.51,-1.26 -10.53,-3.77 -2.01,-2.53 -2.39,-6.1 -1.15,-10.73 1.54,-5.73 4.17,-9.82 7.95,-12.32 3.75,-2.48 9.22,-3.73 16.4,-3.73l17.49 0 0.34 -1.25c0.8,-3 0.49,-5.09 -0.94,-6.3 -1.44,-1.22 -4.42,-1.82 -8.92,-1.82l-22.21 0 2.79 -10.39zm38.71 34.65l-4.2 15.67 -17.6 0c9.09,-4.15 16.42,-9.66 21.8,-15.67zm-31.81 5.54l16.66 0 2.79 -10.39 -15.68 0c-3.1,0 -5.37,0.42 -6.78,1.26 -1.41,0.84 -2.39,2.31 -2.94,4.38 -0.47,1.78 -0.33,3.01 0.42,3.71 0.77,0.7 2.62,1.05 5.53,1.05z"/>
    <path fill="#044A78" d="M334.78 46.04c2.75,0 5.49,0 8.24,0 0.98,-2.63 1.98,-5.26 2.96,-7.88 -3.79,3.72 -8.77,6.5 -15.25,8.1 1.35,-0.08 2.7,-0.15 4.05,-0.22z"/>
    <path fill="#044A78" fill-rule="nonzero" d="M329.88 101.25l-11.85 0c5.32,-2.43 10.05,-5.33 14.13,-8.51l-2.28 8.51zm-13.98 0l-0.02 0 13.53 -50.51 14 0 -9.22 34.41c-4.46,5.77 -10.44,11.34 -18.29,16.09z"/>
    <path fill="#044A78" fill-rule="nonzero" d="M406.02 50.87l27.24 0c6.88,0 11.63,1.58 14.27,4.73 1.15,1.38 1.88,3.05 2.22,5 -1.71,12.43 -9.72,28.95 -28.93,40.59l-16.02 0c-5,0 -8.52,-1.26 -10.53,-3.77 -2.01,-2.53 -2.4,-6.1 -1.15,-10.73 1.54,-5.73 4.18,-9.82 7.95,-12.32 3.75,-2.48 9.23,-3.73 16.4,-3.73l17.5 0 0.33 -1.25c0.8,-3 0.49,-5.09 -0.93,-6.3 -1.45,-1.22 -4.42,-1.82 -8.92,-1.82l-22.21 0 2.79 -10.39zm38.71 34.65l-4.2 15.67 -17.6 0c9.09,-4.15 16.42,-9.66 21.79,-15.67zm-31.8 5.54l16.66 0 2.79 -10.39 -15.68 0c-3.11,0 -5.37,0.42 -6.79,1.26 -1.4,0.84 -2.38,2.31 -2.94,4.38 -0.47,1.78 -0.33,3.01 0.42,3.71 0.77,0.7 2.62,1.05 5.53,1.05z"/>
   </g>
  </g>
 </g>
</svg>
